HIERARCHY
ROOT Hips
{
	OFFSET	0.00	0.00	0.00
	CHANNELS 6 Xposition Yposition Zposition Zrotation Xrotation Yrotation
	JOINT Spine
	{
		OFFSET	 0.00	0.01	 0.00
		CHANNELS 3 Zrotation Xrotation Yrotation
		JOINT Spine1
		{
			OFFSET	 0.00	 2.45913012437421	 0.00
			CHANNELS 3 Zrotation Xrotation Yrotation
            JOINT Neck
            {
                OFFSET	 0.00	 2.48462964506057	 0.00
                CHANNELS 3 Zrotation Xrotation Yrotation
                JOINT Head
                {
                    OFFSET	 0.00	 0.927524780924562	 0.00
                    CHANNELS 3 Zrotation Xrotation Yrotation
                    End Site 
                    {
                        OFFSET	 0.00	 1.14999962169752	 0.00
                    }
                }
            }
			JOINT LeftShoulder
			{
				OFFSET	 0.00	 2.48462964506057	 0.00
				CHANNELS 3 Zrotation Xrotation Yrotation
				JOINT LeftUpArm
				{
					OFFSET	 0.00	 1.24881979654096	 0.00
					CHANNELS 3 Zrotation Xrotation Yrotation
					JOINT LeftForeArm
					{
						OFFSET	 0.00	2.59758046908119	 0.00
						CHANNELS 3 Zrotation Xrotation Yrotation
						JOINT LeftHand
						{
							OFFSET	 0.00	2.45542024364365	 0.00
							CHANNELS 3 Zrotation Xrotation Yrotation
							JOINT LeftHandThumb 
							{
								OFFSET	 0.00	0.00	 0.00
								CHANNELS 3 Zrotation Xrotation Yrotation
								End Site
								{
									OFFSET	 0.00	0.00	1.00000003353624
								}
							}
							JOINT L_Wrist_End 
							{
								OFFSET	 0.00	0.99999967115358	 0.00
								CHANNELS 3 Zrotation Xrotation Yrotation
								End Site 
								{
									OFFSET	 0.00	 0.00	 0.00
								}
							}
						}
					}
				}
			}
			JOINT RightShoulder
			{
				OFFSET	 0.00	 2.48462964506057	 0.00
				CHANNELS 3 Zrotation Xrotation Yrotation
				JOINT RightUpArm
				{
					OFFSET	 0.00	 1.24881979654096	 0.00
					CHANNELS 3 Zrotation Xrotation Yrotation
					JOINT RightForeArm
					{
						OFFSET	 0.00	2.59758046908119	 0.00
						CHANNELS 3 Zrotation Xrotation Yrotation
						JOINT RightHand
						{
							OFFSET	 0.00	2.45542024364365	 0.00
							CHANNELS 3 Zrotation Xrotation Yrotation
							JOINT RightHandThumb 
							{
								OFFSET	 0.00	0.00	 0.00
								CHANNELS 3 Zrotation Xrotation Yrotation
								End Site
								{
									OFFSET	 0.00	0.00	1.00000003353624
								}
							}
							JOINT R_Wrist_End 
							{
								OFFSET	 0.00	0.99999967115358	 0.00
								CHANNELS 3 Zrotation Xrotation Yrotation
								End Site 
								{
									OFFSET	 0.00	 0.00	 0.00
								}
							}
						}
					}
				}
			}
		}
	}
	JOINT LeftUpLeg
	{
		OFFSET	 1.2719394002717	 0.00	 0.00
		CHANNELS 3 Zrotation Xrotation Yrotation
		JOINT LeftLowLeg
		{
			OFFSET	 0.00	-4.3429100912261	 0.00
			CHANNELS 3 Zrotation Xrotation Yrotation
			JOINT LeftFoot
			{
				OFFSET	 0.00	-4.48767017425826	 0.00
				CHANNELS 3 Zrotation Xrotation Yrotation
				JOINT LeftToeBase
                {
                    OFFSET	 0.00	0.00	 1.51507020887566
                    CHANNELS 3 Zrotation Xrotation Yrotation
                    End Site 
                    {
                        OFFSET	 0.00	0.00	 0.75000010571191
                    }
                }
			}
		}
	}
	JOINT RightUpLeg
	{
		OFFSET	 -1.2719393604653	 0.00	 0.00
		CHANNELS 3 Zrotation Xrotation Yrotation
		JOINT RightLowLeg
		{
			OFFSET	 0.00	-4.3429100912261	 0.00
			CHANNELS 3 Zrotation Xrotation Yrotation
			JOINT RightFoot
			{
				OFFSET	 0.00	-4.48767017425826	 0.00
				CHANNELS 3 Zrotation Xrotation Yrotation
				JOINT RightToeBase
                {
                    OFFSET	 0.00	0.00	 1.51507020887566
                    CHANNELS 3 Zrotation Xrotation Yrotation
                    End Site 
                    {
                        OFFSET	 0.00	0.00	 0.749999965609858
                    }
                }   
			}
		}
	}
}
MOTION 
Frames:	18 
Frame Time: 0.02 
  1.9014100646972656 -1.194209976196289 7.04197998046875 -5.39111 64.546 372.396 5.58547 23.6147 0.11605 1.34614 13.7501 -1.5029 14.1908 42.9755 348.042 133.205 -64.2757 483.487 -122.5849 -0.907416 13.0644 -31.8043 17.9795 30.6594 0.0 61.4487 0.0 49.8643 18.3298 18.1829 0.0 0.0 0.0 0.0 0.0 0.0 115.9628 1.56961 -369.559 -15.5428 51.1403 46.0694 0.0 149.252 0.0 -94.132 22.4197 -7.99983 0.0 0.0 0.0 0.0 0.0 0.0 12.6059 -37.7243 10.0305 0.0 61.2132 0.0 -10.5241 -4.4062004 8.62034 0.0 -43.5918 0.0 -1.08846 -36.6515 -11.2434 0.0 63.0707 0.0 10.0674 4.0986996 -0.194233 0.0 -50.8535 0.0 
  1.9015499877929687 -1.1948400115966797 7.042830200195312 -5.46047 64.5111 372.445 5.71256 23.5483 0.229645 1.25336 13.8802 -1.30163 14.8674 43.1312 347.125 133.203 -64.0056 484.026 -122.3787 -1.01365 12.9057 -32.9422 18.423 30.2083 0.0 60.5672 0.0 50.5962 18.2593 17.7822 0.0 0.0 0.0 0.0 0.0 0.0 116.1434 1.56142 -369.82 -16.6892 51.3673 46.3214 0.0 148.623 0.0 -95.1799 24.0268 -6.72121 0.0 0.0 0.0 0.0 0.0 0.0 12.9196 -37.7178 10.6386 0.0 61.5605 0.0 -9.95971 -5.9177 8.19435 0.0 -43.592697 0.0 -1.17304 -36.6359 -11.6158 0.0 63.5105 0.0 9.32297 1.9428997 -0.771141 0.0 -50.5856 0.0 
  1.9014300537109374 -1.1951599884033204 7.0427197265625 -5.46762 64.499 372.471 5.86281 23.4993 0.292012 1.07457 13.9719 -1.1449 15.4234 43.1854 346.446 133.004 -63.7957 484.263 -122.1078 -1.14088 12.9997 -33.8 19.031 29.8124 0.0 59.7388 0.0 51.4137 18.1345 17.6457 0.0 0.0 0.0 0.0 0.0 0.0 116.1302 1.55624 -370.02 -17.7015 51.8166 46.5806 0.0 148.515 0.0 -96.5179 24.0877 -5.31127 0.0 0.0 0.0 0.0 0.0 0.0 13.1513 -37.7629 11.1239 0.0 61.9328 0.0 -9.51091 -7.2351 7.86755 0.0 -44.1522 0.0 -1.31271 -36.6215 -11.9515 0.0 63.8469 0.0 9.44226 0.3135004 -0.532123 0.0 -51.3268 0.0 
  1.8999099731445312 -1.1944499969482423 7.043079833984375 -5.43667 64.5232 372.424 5.91942 23.4689 0.395211 0.926174 14.0102 -0.999872 15.8991 43.1843 345.926 132.674 -63.6512 484.263 -121.8632 -1.20019 12.9699 -34.3696 19.4901 29.7916 0.0 58.9863 0.0 52.152 18.116 17.3426 0.0 0.0 0.0 0.0 0.0 0.0 116.153 1.55009 -370.216 -18.8841 52.2488 46.9317 0.0 148.408 0.0 -98.5917 23.7538 -2.36986 0.0 0.0 0.0 0.0 0.0 0.0 13.4222 -37.7631 11.6994 0.0 62.1638 0.0 -9.15796 -8.642 7.65444 0.0 -44.1791 0.0 -1.44627 -36.6426 -12.2791 0.0 64.1637 0.0 8.92989 -1.4673996 -0.515521 0.0 -51.1254 0.0 
  1.8983700561523438 -1.1931900024414062 7.042570190429688 -5.4835 64.7003 372.51 6.01501 23.3111 0.456786 0.734102 13.9537 -0.876795 16.5314 43.242 345.276 132.166 -63.5905 484.026 -121.6478 -1.17673 12.9645 -34.4968 19.7654 30.1136 0.0 58.5342 0.0 52.757 17.909 17.1738 0.0 0.0 0.0 0.0 0.0 0.0 116.2257 1.6048 -370.529 -20.0768 52.4212 47.7032 0.0 147.913 0.0 -100.057 24.9168 -0.377224 0.0 0.0 0.0 0.0 0.0 0.0 13.6389 -37.9274 12.1516 0.0 62.3642 0.0 -8.92998 -10.131399 7.52927 0.0 -44.177498 0.0 -1.60539 -36.8199 -12.6021 0.0 64.473 0.0 8.61703 -3.1226997 -0.295438 0.0 -51.1789 0.0 
  1.8946099853515626 -1.1932099914550782 7.042960205078125 -5.34283 64.7692 372.363 5.91876 23.2994 0.608946 0.693602 13.9095 -0.768502 17.0299 43.2498 344.747 131.754 -63.4616 483.971 -121.4935 -1.08741 12.9848 -34.3318 19.9714 30.6234 0.0 58.2826 0.0 53.2565 17.7916 16.7739 0.0 0.0 0.0 0.0 0.0 0.0 116.2752 1.52656 -370.684 -21.1242 52.7071 48.4168 0.0 147.474 0.0 -101.498 25.6076 1.53441 0.0 0.0 0.0 0.0 0.0 0.0 13.8616 -37.9199 12.7001 0.0 62.5542 0.0 -8.66822 -11.4998 7.53259 0.0 -44.0008 0.0 -1.71718 -36.8802 -12.7616 0.0 64.752 0.0 8.3034 -4.4736004 -0.194219 0.0 -51.6176 0.0 
  1.8899400329589844 -1.1928099822998046 7.043720092773437 -5.22044 64.854 372.307 5.79037 23.2772 0.73895 0.772657 13.8657 -0.700819 17.4057 43.2365 344.342 131.543 -63.3307 483.999 -121.2788 -0.970073 13.3284 -34.0637 20.4274 31.0368 0.0 58.0003 0.0 53.7883 17.7303 16.2057 0.0 0.0 0.0 0.0 0.0 0.0 116.219604 1.46208 -370.804 -21.8519 52.892 49.0827 0.0 146.801 0.0 -102.661 27.0257 3.37107 0.0 0.0 0.0 0.0 0.0 0.0 14.0405 -37.9522 13.1396 0.0 62.7239 0.0 -8.45159 -12.7097 7.52524 0.0 -43.8666 0.0 -1.83349 -36.9218 -12.9299 0.0 64.9282 0.0 8.17357 -5.6802998 -0.156126 0.0 -52.022 0.0 
  1.8858999633789062 -1.1922899627685546 7.04468994140625 -5.11993 64.9034 372.225 5.6646 23.2728 0.879112 0.84125 13.8637 -0.621024 17.7962 43.2115 343.959 131.235 -63.1912 483.955 -121.1414 -0.825839 13.6793 -33.4111 20.6861 31.6039 0.0 58.2312 0.0 54.0515 16.944 15.2863 0.0 0.0 0.0 0.0 0.0 0.0 116.225296 1.42096 -371.043 -22.8994 52.9505 50.1275 0.0 146.472 0.0 -103.591 27.4357 4.81885 0.0 0.0 0.0 0.0 0.0 0.0 14.2258 -37.9545 13.5816 0.0 62.8913 0.0 -7.99362 -13.6954 7.74917 0.0 -43.3096 0.0 -1.91103 -36.9519 -13.0486 0.0 65.0694 0.0 7.97217 -6.5305004 -0.206126 0.0 -52.3342 0.0 
  1.8827699279785157 -1.1909300231933593 7.045989990234375 -4.97597 64.9254 372.134 5.59154 23.2864 0.975157 0.819561 13.9098 -0.561008 18.3353 43.1975 343.49 130.908 -62.948 483.918 -120.9844 -0.669606 13.9367 -32.703 21.0482 32.3845 0.0 58.2938 0.0 54.5896 16.2345 14.0865 0.0 0.0 0.0 0.0 0.0 0.0 116.2418 1.42182 -371.216 -23.7339 52.8867 51.0304 0.0 146.175 0.0 -104.243 27.8676 5.7822 0.0 0.0 0.0 0.0 0.0 0.0 14.3448 -37.9143 13.9439 0.0 62.9704 0.0 -7.59296 -14.422001 8.00805 0.0 -42.8619 0.0 -2.0436 -36.9337 -13.2121 0.0 65.1442 0.0 7.93596 -6.993 -0.217828 0.0 -52.381 0.0 
  1.8808700561523437 -1.1894000244140626 7.04739013671875 -4.87631 64.8972 372.066 5.5732 23.3387 1.04034 0.767003 14.0294 -0.503088 18.8249 43.0173 343.059 130.513 -62.6827 483.825 -120.7314 -0.585309 14.1359 -32.1107 21.4986 33.2144 0.0 58.2881 0.0 55.0404 15.6714 13.0242 0.0 0.0 0.0 0.0 0.0 0.0 116.3701 1.35271 -371.301 -24.6426 52.7997 51.798 0.0 145.906 0.0 -104.95 27.9361 6.57553 0.0 0.0 0.0 0.0 0.0 0.0 14.4458 -37.8193 14.2557 0.0 62.9823 0.0 -7.30883 -14.9534 8.23673 0.0 -42.7106 0.0 -2.15928 -36.8653 -13.4079 0.0 65.1335 0.0 7.8394 -6.9759007 -0.339297 0.0 -52.4151 0.0 
  1.8800100708007812 -1.1878700256347656 7.04802978515625 -4.85239 64.8304 372.061 5.60082 23.4201 1.07306 0.722884 14.1883 -0.452653 18.8672 42.7266 343.177 130.26 -62.4473 483.675 -120.5897 -0.515115 14.1717 -31.4094 21.8795 34.1771 0.0 58.3412 0.0 55.6096 15.089 11.9664 0.0 0.0 0.0 0.0 0.0 0.0 116.3159 1.32873 -371.274 -25.1335 52.7645 52.2024 0.0 145.834 0.0 -105.586 27.7874 6.92078 0.0 0.0 0.0 0.0 0.0 0.0 14.545 -37.7204 14.4586 0.0 62.9896 0.0 -7.2893 -15.280899 8.24595 0.0 -42.690002 0.0 -2.23198 -36.774 -13.557 0.0 65.0218 0.0 7.72305 -6.0496006 -0.570809 0.0 -52.3016 0.0 
  1.8802999877929687 -1.1856300354003906 7.048140258789062 -4.92115 64.7608 372.132 5.63866 23.5026 1.0952 0.749093 14.3142 -0.404798 18.6209 42.4962 343.653 130.044 -62.2627 483.526 -120.4719 -0.394989 14.2298 -30.7821 22.2382 34.9687 0.0 58.3075 0.0 55.8861 14.8272 11.089 0.0 0.0 0.0 0.0 0.0 0.0 116.2759 1.28341 -371.231 -25.4165 52.6646 52.4877 0.0 145.569 0.0 -105.942 27.9571 7.54393 0.0 0.0 0.0 0.0 0.0 0.0 14.673 -37.6515 14.6189 0.0 62.9958 0.0 -7.50569 -15.273399 8.00647 0.0 -42.5633 0.0 -2.26802 -36.6753 -13.6844 0.0 64.7028 0.0 7.57952 -4.0438995 -0.959985 0.0 -52.2076 0.0 
  1.8812399291992188 -1.1838500213623047 7.047880249023438 -4.99097 64.6732 372.197 5.66871 23.5965 1.10219 0.812019 14.4586 -0.377657 18.1339 42.207 344.327 129.776 -62.1272 483.428 -120.4294 -0.296192 14.2358 -30.149 22.5695 35.6854 0.0 58.2941 0.0 56.1345 14.4688 10.4147 0.0 0.0 0.0 0.0 0.0 0.0 116.246704 1.20365 -371.214 -25.7115 52.5916 52.6999 0.0 145.416 0.0 -105.988 27.7066 7.72433 0.0 0.0 0.0 0.0 0.0 0.0 14.7925 -37.5663 14.7425 0.0 62.9382 0.0 -7.77903 -14.594999 7.71793 0.0 -42.356003 0.0 -2.28808 -36.5452 -13.7798 0.0 64.1848 0.0 7.48341 -1.2311001 -1.48524 0.0 -53.6637 0.0 
  1.8833799743652344 -1.1819300079345703 7.046539916992187 -5.12076 64.6884 372.347 5.71275 23.5924 1.07085 0.881583 14.5695 -0.383572 17.6648 41.936 344.935 129.664 -61.9822 483.458 -120.3781 -0.202099 14.3233 -29.6435 22.9142 36.1708 0.0 58.2508 0.0 56.3915 13.8748 9.64669 0.0 0.0 0.0 0.0 0.0 0.0 116.2381 1.16149 -371.076 -25.6521 52.4892 52.5229 0.0 145.101 0.0 -105.997 27.5736 8.17628 0.0 0.0 0.0 0.0 0.0 0.0 14.8751 -37.6045 14.7618 0.0 62.7719 0.0 -7.97407 -13.1334 7.54215 0.0 -42.6242 0.0 -2.33607 -36.496 -13.9384 0.0 63.6344 0.0 7.94783 0.7103996 -1.83764 0.0 -53.5875 0.0 
  1.8862699890136718 -1.181520004272461 7.045059814453125 -5.13446 64.7385 372.422 5.73988 23.5189 1.00305 0.943613 14.7305 -0.441581 16.9227 41.7322 345.847 129.741 -61.8842 483.578 -120.3999 -0.113373 14.329 -29.126 23.1852 36.6078 0.0 58.1886 0.0 56.3675 13.2609 8.93825 0.0 0.0 0.0 0.0 0.0 0.0 116.2538 1.10954 -370.955 -25.5347 52.4295 52.2353 0.0 144.801 0.0 -105.741 27.4799 8.39632 0.0 0.0 0.0 0.0 0.0 0.0 14.8573 -37.6432 14.7288 0.0 62.4224 0.0 -8.13682 -11.157101 7.46853 0.0 -42.6446 0.0 -2.46636 -36.5247 -14.0694 0.0 63.3499 0.0 8.41866 1.7757998 -1.92719 0.0 -52.6231 0.0 
  1.8898899841308594 -1.1826699829101563 7.044080200195313 -5.10635 64.7725 372.435 5.73767 23.4439 0.931185 1.03734 14.8828 -0.521606 16.1009 41.6546 346.806 129.961 -61.8214 483.843 -120.4779 -0.0792778 14.3624 -28.6749 23.5164 37.0275 0.0 57.9784 0.0 56.785 12.4997 8.28717 0.0 0.0 0.0 0.0 0.0 0.0 116.2927 0.986675 -370.85 -25.3527 52.5123 51.7962 0.0 144.49 0.0 -105.507 27.2976 8.34745 0.0 0.0 0.0 0.0 0.0 0.0 14.8227 -37.6266 14.7044 0.0 61.9507 0.0 -8.42141 -8.5334 7.36871 0.0 -42.8891 0.0 -2.57866 -36.5535 -14.1317 0.0 63.2658 0.0 8.54555 2.7937002 -1.92413 0.0 -52.1561 0.0 
  1.8935400390625 -1.1849400329589843 7.043939819335938 -5.13183 64.791 372.471 5.73343 23.3457 0.863799 1.16725 15.0409 -0.596775 15.2797 41.7278 347.705 130.236 -61.8207 484.208 -120.5272 -0.0457514 14.3901 -28.4333 23.8853 37.3677 0.0 57.6058 0.0 56.904 11.8787 7.38504 0.0 0.0 0.0 0.0 0.0 0.0 116.3569 0.890412 -370.733 -25.0933 52.5608 51.0783 0.0 144.14 0.0 -105.25 27.0342 8.41659 0.0 0.0 0.0 0.0 0.0 0.0 14.7997 -37.5737 14.6121 0.0 61.404 0.0 -9.18304 -5.357401 7.00573 0.0 -42.4562 0.0 -2.63641 -36.5602 -14.1445 0.0 63.1577 0.0 8.57331 4.0476 -1.90117 0.0 -51.9095 0.0 
  1.8974400329589844 -1.187249984741211 7.044400024414062 -5.28244 64.7883 372.602 5.76152 23.2808 0.785213 1.35498 15.1308 -0.661491 14.3757 41.9944 348.604 130.64 -61.8958 484.755 -120.5992 -0.0776256 14.4314 -28.2729 24.3407 37.8484 0.0 56.9757 0.0 57.3554 11.6172 6.52575 0.0 0.0 0.0 0.0 0.0 0.0 116.4164 0.828391 -370.711 -24.8697 52.5524 50.3726 0.0 143.74 0.0 -104.91 26.9365 8.46435 0.0 0.0 0.0 0.0 0.0 0.0 14.7972 -37.4812 14.4451 0.0 60.7405 0.0 -10.348 -1.9148998 6.46007 0.0 -42.8521 0.0 -2.61358 -36.5391 -14.0799 0.0 62.9321 0.0 8.62908 5.5887804 -1.81697 0.0 -51.1016 0.0 
